<?xml version="1.0" encoding="UTF-8"?>
<svg xmlns="http://www.w3.org/2000/svg" width="320" height="380" viewBox="0 0 320 380">
  <ellipse cx="160" cy="360" rx="70" ry="16" fill="#3a4f3c" opacity="0.28"/>
  <rect x="148" y="200" width="24" height="155" rx="6" fill="#7a5a3d"/>
  <path d="M160 220 Q110 250 95 300" stroke="#8a6a4a" stroke-width="10" fill="none" stroke-linecap="round"/>
  <path d="M160 210 Q210 240 225 290" stroke="#8a6a4a" stroke-width="10" fill="none" stroke-linecap="round"/>
  <ellipse cx="160" cy="150" rx="110" ry="95" fill="#6f9a66"/>
  <ellipse cx="105" cy="145" rx="55" ry="50" fill="#7eaa74"/>
  <ellipse cx="215" cy="140" rx="58" ry="52" fill="#5f8a58"/>
  <ellipse cx="160" cy="100" rx="50" ry="45" fill="#8aba7e"/>
  <circle cx="90" cy="130" r="10" fill="#f4a7c1"/>
  <circle cx="120" cy="105" r="9" fill="#f7b6cc"/>
  <circle cx="155" cy="90" r="11" fill="#f4a7c1"/>
  <circle cx="195" cy="100" r="10" fill="#f9c2d4"/>
  <circle cx="225" cy="125" r="11" fill="#f4a7c1"/>
  <circle cx="240" cy="160" r="9" fill="#f7b6cc"/>
  <circle cx="80" cy="165" r="8" fill="#f9c2d4"/>
  <circle cx="140" cy="140" r="8" fill="#f4a7c1"/>
  <circle cx="180" cy="155" r="9" fill="#f7b6cc"/>
  <circle cx="205" cy="175" r="8" fill="#f4a7c1"/>
  <circle cx="110" cy="175" r="7" fill="#f9c2d4"/>
  <circle cx="165" cy="115" r="7" fill="#ffe0eb"/>
</svg>
