<?xml version="1.0" encoding="UTF-8"?>
<svg xmlns="http://www.w3.org/2000/svg" width="320" height="380" viewBox="0 0 320 380">
  <ellipse cx="160" cy="360" rx="70" ry="16" fill="#3a4f3c" opacity="0.28"/>
  <rect x="148" y="200" width="24" height="155" rx="6" fill="#7a5a3d"/>
  <ellipse cx="160" cy="150" rx="110" ry="95" fill="#f3b8c8"/>
  <ellipse cx="110" cy="145" rx="55" ry="50" fill="#f7c9d6"/>
  <ellipse cx="210" cy="135" rx="58" ry="52" fill="#e89bb0"/>
  <ellipse cx="160" cy="95" rx="50" ry="45" fill="#f0a8bc"/>
  <circle cx="95" cy="120" r="8" fill="#f8dce4"/>
  <circle cx="130" cy="95" r="7" fill="#fff0f4"/>
  <circle cx="175" cy="80" r="8" fill="#f8dce4"/>
  <circle cx="220" cy="105" r="7" fill="#fff0f4"/>
  <circle cx="245" cy="145" r="8" fill="#f8dce4"/>
  <circle cx="80" cy="160" r="7" fill="#fff0f4"/>
  <circle cx="145" cy="170" r="8" fill="#f8dce4"/>
  <circle cx="195" cy="175" r="7" fill="#fff0f4"/>
  <circle cx="115" cy="200" r="6" fill="#f0a8bc" opacity="0.85"/>
  <circle cx="205" cy="205" r="6" fill="#e89bb0" opacity="0.85"/>
  <ellipse cx="155" cy="140" rx="28" ry="24" fill="#7ea86f" opacity="0.55"/>
  <ellipse cx="185" cy="155" rx="22" ry="18" fill="#6f9a66" opacity="0.45"/>
</svg>
