<?xml version="1.0" encoding="UTF-8"?>
<svg xmlns="http://www.w3.org/2000/svg" width="180" height="220" viewBox="0 0 180 220">
  <ellipse cx="90" cy="205" rx="55" ry="12" fill="#3a4f3c" opacity="0.24"/>
  <ellipse cx="90" cy="195" rx="70" ry="18" fill="#b8b4a6"/>
  <ellipse cx="90" cy="188" rx="58" ry="12" fill="#8eb4b8"/>
  <rect x="72" y="120" width="36" height="70" rx="6" fill="#aaa698"/>
  <ellipse cx="90" cy="120" rx="42" ry="14" fill="#b8b4a6"/>
  <ellipse cx="90" cy="116" rx="32" ry="9" fill="#8eb4b8"/>
  <rect x="82" y="70" width="16" height="48" rx="4" fill="#9a9688"/>
  <ellipse cx="90" cy="68" rx="22" ry="10" fill="#b8b4a6"/>
  <ellipse cx="90" cy="64" rx="14" ry="6" fill="#8eb4b8"/>
  <circle cx="90" cy="48" r="8" fill="#c4c0b2"/>
  <path d="M90 48 Q70 70 68 95" stroke="#a8d4d8" stroke-width="4" fill="none" opacity="0.9"/>
  <path d="M90 48 Q110 70 112 95" stroke="#a8d4d8" stroke-width="4" fill="none" opacity="0.9"/>
  <path d="M90 48 Q78 78 76 110" stroke="#b8e0e4" stroke-width="3" fill="none" opacity="0.75"/>
  <path d="M90 48 Q102 78 104 110" stroke="#b8e0e4" stroke-width="3" fill="none" opacity="0.75"/>
  <circle cx="68" cy="98" r="3" fill="#c8ecef" opacity="0.9"/>
  <circle cx="112" cy="98" r="3" fill="#c8ecef" opacity="0.9"/>
  <circle cx="76" cy="112" r="2.5" fill="#c8ecef" opacity="0.85"/>
  <circle cx="104" cy="112" r="2.5" fill="#c8ecef" opacity="0.85"/>
</svg>
