<?xml version="1.0" encoding="UTF-8"?>
<svg xmlns="http://www.w3.org/2000/svg" width="180" height="220" viewBox="0 0 180 220">
  <ellipse cx="90" cy="205" rx="55" ry="12" fill="#3a4f3c" opacity="0.22"/>
  <ellipse cx="90" cy="195" rx="70" ry="18" fill="#b8b4a6"/>
  <ellipse cx="90" cy="188" rx="58" ry="12" fill="#8eb4b8"/>
  <rect x="72" y="120" width="36" height="70" rx="6" fill="#aaa698"/>
  <ellipse cx="90" cy="120" rx="42" ry="14" fill="#c4c0b2"/>
  <ellipse cx="90" cy="116" rx="32" ry="9" fill="#8eb4b8"/>
  <rect x="82" y="70" width="16" height="50" rx="4" fill="#9a9688"/>
  <ellipse cx="90" cy="70" rx="22" ry="10" fill="#b8b4a6"/>
  <ellipse cx="90" cy="66" rx="14" ry="6" fill="#a8d0d4"/>
  <circle cx="90" cy="48" r="8" fill="#8eb4b8"/>
  <path d="M90 40 Q78 28 70 18" stroke="#a8d0d4" stroke-width="4" fill="none" opacity="0.85"/>
  <path d="M90 40 Q102 28 110 18" stroke="#a8d0d4" stroke-width="4" fill="none" opacity="0.85"/>
  <path d="M90 38 Q90 24 90 14" stroke="#c5e4e8" stroke-width="3.5" fill="none" opacity="0.9"/>
  <circle cx="70" cy="16" r="3" fill="#c5e4e8" opacity="0.8"/>
  <circle cx="110" cy="16" r="3" fill="#c5e4e8" opacity="0.8"/>
  <circle cx="90" cy="12" r="2.5" fill="#d8f0f2" opacity="0.85"/>
</svg>
