<?xml version="1.0" encoding="UTF-8"?>
<svg xmlns="http://www.w3.org/2000/svg" width="180" height="220" viewBox="0 0 180 220">
  <ellipse cx="90" cy="205" rx="55" ry="12" fill="#3a4f3c" opacity="0.25"/>
  <ellipse cx="90" cy="195" rx="70" ry="18" fill="#b8b4a6"/>
  <ellipse cx="90" cy="188" rx="58" ry="12" fill="#8eb4b8" opacity="0.85"/>
  <rect x="72" y="120" width="36" height="70" rx="6" fill="#aaa698"/>
  <ellipse cx="90" cy="120" rx="42" ry="14" fill="#c4c0b2"/>
  <ellipse cx="90" cy="116" rx="30" ry="9" fill="#8eb4b8"/>
  <rect x="82" y="70" width="16" height="48" rx="4" fill="#9a9688"/>
  <ellipse cx="90" cy="68" rx="22" ry="8" fill="#b8b4a6"/>
  <ellipse cx="90" cy="64" rx="14" ry="5" fill="#a8d4d8"/>
  <circle cx="90" cy="48" r="7" fill="#7eb8c0"/>
  <path d="M90 55 Q70 90 78 115" stroke="#a8d4d8" stroke-width="4" fill="none" opacity="0.75" stroke-linecap="round"/>
  <path d="M90 55 Q110 90 102 115" stroke="#a8d4d8" stroke-width="4" fill="none" opacity="0.75" stroke-linecap="round"/>
  <path d="M90 55 Q90 95 90 115" stroke="#c5e6ea" stroke-width="3" fill="none" opacity="0.7" stroke-linecap="round"/>
  <circle cx="78" cy="100" r="3" fill="#c5e6ea" opacity="0.8"/>
  <circle cx="102" cy="95" r="2.5" fill="#c5e6ea" opacity="0.8"/>
  <circle cx="90" cy="85" r="2" fill="#dff4f6" opacity="0.9"/>
</svg>
